{
  "accessors": [
    {
      "bufferView": 2,
      "componentType": 5126,
      "count": 447,
      "max": [
        26.998817443847656,
        89.8107681274414,
        16.765228271484375
      ],
      "min": [
        -20.181865692138672,
        -15.486061096191406,
        -27.62677001953125
      ],
      "type": "VEC3"
    },
    {
      "bufferView": 2,
      "byteOffset": 5364,
      "componentType": 5126,
      "count": 447,
      "max": [
        0.9992887377738953,
        0.8618084788322449,
        0.9996412992477417
      ],
      "min": [
        -0.9929299354553223,
        -0.2833789587020874,
        -0.9996553063392639
      ],
      "type": "VEC3"
    },
    {
      "bufferView": 3,
      "componentType": 5126,
      "count": 447,
      "max": [
        1.0,
        0.6212109327316284,
        0.9855979681015015,
        1.0
      ],
      "min": [
        -0.9764929413795471,
        -0.7509339451789856,
        -0.9971432089805603,
        -1.0
      ],
      "type": "VEC4"
    },
    {
      "bufferView": 1,
      "componentType": 5126,
      "count": 447,
      "max": [
        0.9858120083808899,
        0.6444439888000488
      ],
      "min": [
        0.013817023485898972,
        0.0
      ],
      "type": "VEC2"
    },
    {
      "bufferView": 0,
      "componentType": 5125,
      "count": 1656,
      "type": "SCALAR"
    }
  ],
  "asset": {
    "extras": {
      "author": "NotJonatan (https://sketchfab.com/NotJonatan)",
      "license": "CC-BY-4.0 (http://creativecommons.org/licenses/by/4.0/)",
      "source": "https://sketchfab.com/3d-models/underground-ruins-tall-grass-1-4e7d8bd062b149e6b85fdaa7305c4474",
      "title": "Underground Ruins - Tall Grass 1"
    },
    "generator": "Sketchfab-16.56.0",
    "version": "2.0"
  },
  "bufferViews": [
    {
      "buffer": 0,
      "byteLength": 6624,
      "name": "floatBufferViews",
      "target": 34963
    },
    {
      "buffer": 0,
      "byteLength": 3576,
      "byteOffset": 6624,
      "byteStride": 8,
      "name": "floatBufferViews",
      "target": 34962
    },
    {
      "buffer": 0,
      "byteLength": 10728,
      "byteOffset": 10200,
      "byteStride": 12,
      "name": "floatBufferViews",
      "target": 34962
    },
    {
      "buffer": 0,
      "byteLength": 7152,
      "byteOffset": 20928,
      "byteStride": 16,
      "name": "floatBufferViews",
      "target": 34962
    }
  ],
  "buffers": [
    {
      "byteLength": 28080,
      "uri": "scene.bin"
    }
  ],
  "extensionsRequired": [
    "KHR_materials_pbrSpecularGlossiness"
  ],
  "extensionsUsed": [
    "KHR_materials_pbrSpecularGlossiness"
  ],
  "images": [
    {
      "uri": "textures/M_FoliageAtlas2_diffuse.png"
    },
    {
      "uri": "textures/M_FoliageAtlas2_normal.png"
    }
  ],
  "materials": [
    {
      "alphaCutoff": 0.041142982530994375,
      "alphaMode": "MASK",
      "doubleSided": true,
      "extensions": {
        "KHR_materials_pbrSpecularGlossiness": {
          "diffuseFactor": [
            1.0,
            1.0,
            1.0,
            1.0
          ],
          "diffuseTexture": {
            "index": 0
          },
          "glossinessFactor": 0.4,
          "specularFactor": [
            0.0,
            0.0,
            0.0
          ]
        }
      },
      "name": "M_FoliageAtlas2",
      "normalTexture": {
        "index": 1
      }
    }
  ],
  "meshes": [
    {
      "name": "polySurface178_M_FoliageAtlas2_0",
      "primitives": [
        {
          "attributes": {
            "NORMAL": 1,
            "POSITION": 0,
            "TANGENT": 2,
            "TEXCOORD_0": 3
          },
          "indices": 4,
          "material": 0,
          "mode": 4
        }
      ]
    }
  ],
  "nodes": [
    {
      "children": [
        1
      ],
      "matrix": [
        1.0,
        0.0,
        0.0,
        0.0,
        0.0,
        2.220446049250313e-16,
        -1.0,
        0.0,
        0.0,
        1.0,
        2.220446049250313e-16,
        0.0,
        0.0,
        0.0,
        0.0,
        1.0
      ],
      "name": "Sketchfab_model"
    },
    {
      "children": [
        2
      ],
      "matrix": [
        0.009999999776482582,
        0.0,
        0.0,
        0.0,
        0.0,
        0.0,
        0.009999999776482582,
        0.0,
        0.0,
        -0.009999999776482582,
        0.0,
        0.0,
        0.0,
        0.0,
        0.0,
        1.0
      ],
      "name": "62c13ad4896b4a80a4c3243d33ac316f.fbx"
    },
    {
      "children": [
        3
      ],
      "name": "RootNode"
    },
    {
      "children": [
        4
      ],
      "name": "polySurface178"
    },
    {
      "mesh": 0,
      "name": "polySurface178_M_FoliageAtlas2_0"
    }
  ],
  "samplers": [
    {
      "magFilter": 9729,
      "minFilter": 9987,
      "wrapS": 10497,
      "wrapT": 10497
    }
  ],
  "scene": 0,
  "scenes": [
    {
      "name": "Sketchfab_Scene",
      "nodes": [
        0
      ]
    }
  ],
  "textures": [
    {
      "sampler": 0,
      "source": 0
    },
    {
      "sampler": 0,
      "source": 1
    }
  ]
}
